<svg xmlns="http://www.w3.org/2000/svg" xmlns:xlink="http://www.w3.org/1999/xlink" width="500" zoomAndPan="magnify" viewBox="0 0 375 374.999991" height="500" preserveAspectRatio="xMidYMid meet" version="1.0"><defs><g/><clipPath id="d5fb87beb0"><path d="M 170 87.5625 L 205 87.5625 L 205 178 L 170 178 Z M 170 87.5625 " clip-rule="nonzero"/></clipPath><clipPath id="e971f696bc"><path d="M 190 136 L 270.953125 136 L 270.953125 201 L 190 201 Z M 190 136 " clip-rule="nonzero"/></clipPath><clipPath id="dfe4e6e474"><path d="M 103.703125 136 L 184 136 L 184 201 L 103.703125 201 Z M 103.703125 136 " clip-rule="nonzero"/></clipPath></defs><g fill="#3e4ba7" fill-opacity="1"><g transform="translate(56.191407, 259.869446)"><g><path d="M 3.984375 -34.828125 L 10.9375 -34.828125 L 10.9375 -6.21875 L 26.125 -6.21875 L 26.125 0 L 3.984375 0 Z M 3.984375 -34.828125 "/></g></g></g><g fill="#3e4ba7" fill-opacity="1"><g transform="translate(83.302996, 259.869446)"><g><path d="M 15.171875 0.75 C 13.210938 0.75 11.4375 0.441406 9.84375 -0.171875 C 8.257812 -0.785156 6.898438 -1.679688 5.765625 -2.859375 C 4.640625 -4.035156 3.769531 -5.476562 3.15625 -7.1875 C 2.539062 -8.894531 2.234375 -10.84375 2.234375 -13.03125 C 2.234375 -15.21875 2.539062 -17.164062 3.15625 -18.875 C 3.769531 -20.582031 4.640625 -22.023438 5.765625 -23.203125 C 6.898438 -24.378906 8.257812 -25.28125 9.84375 -25.90625 C 11.4375 -26.539062 13.210938 -26.859375 15.171875 -26.859375 C 17.128906 -26.859375 18.90625 -26.539062 20.5 -25.90625 C 22.09375 -25.28125 23.453125 -24.378906 24.578125 -23.203125 C 25.703125 -22.023438 26.570312 -20.582031 27.1875 -18.875 C 27.800781 -17.164062 28.109375 -15.21875 28.109375 -13.03125 C 28.109375 -10.84375 27.800781 -8.894531 27.1875 -7.1875 C 26.570312 -5.476562 25.703125 -4.035156 24.578125 -2.859375 C 23.453125 -1.679688 22.09375 -0.785156 20.5 -0.171875 C 18.90625 0.441406 17.128906 0.75 15.171875 0.75 Z M 15.171875 -5.21875 C 16.867188 -5.21875 18.265625 -5.851562 19.359375 -7.125 C 20.453125 -8.40625 21 -10.375 21 -13.03125 C 21 -15.6875 20.453125 -17.648438 19.359375 -18.921875 C 18.265625 -20.203125 16.867188 -20.84375 15.171875 -20.84375 C 13.484375 -20.84375 12.082031 -20.203125 10.96875 -18.921875 C 9.851562 -17.648438 9.296875 -15.6875 9.296875 -13.03125 C 9.296875 -10.375 9.851562 -8.40625 10.96875 -7.125 C 12.082031 -5.851562 13.484375 -5.21875 15.171875 -5.21875 Z M 15.171875 -5.21875 "/></g></g></g><g fill="#3e4ba7" fill-opacity="1"><g transform="translate(113.64808, 259.869446)"><g><path d="M 15.078125 0.75 C 13.117188 0.75 11.347656 0.441406 9.765625 -0.171875 C 8.191406 -0.785156 6.847656 -1.679688 5.734375 -2.859375 C 4.628906 -4.035156 3.769531 -5.476562 3.15625 -7.1875 C 2.539062 -8.894531 2.234375 -10.84375 2.234375 -13.03125 C 2.234375 -15.21875 2.539062 -17.164062 3.15625 -18.875 C 3.769531 -20.582031 4.640625 -22.023438 5.765625 -23.203125 C 6.898438 -24.378906 8.257812 -25.28125 9.84375 -25.90625 C 11.4375 -26.539062 13.210938 -26.859375 15.171875 -26.859375 C 16.796875 -26.859375 18.28125 -26.609375 19.625 -26.109375 C 20.96875 -25.617188 22.101562 -24.945312 23.03125 -24.09375 C 23.957031 -23.25 24.675781 -22.269531 25.1875 -21.15625 C 25.707031 -20.050781 25.96875 -18.882812 25.96875 -17.65625 C 25.96875 -17.226562 25.953125 -16.851562 25.921875 -16.53125 C 25.890625 -16.21875 25.835938 -15.929688 25.765625 -15.671875 L 25.625 -14.921875 L 19 -14.921875 C 19.03125 -15.054688 19.066406 -15.222656 19.109375 -15.421875 C 19.140625 -15.585938 19.171875 -15.785156 19.203125 -16.015625 C 19.234375 -16.253906 19.25 -16.519531 19.25 -16.8125 C 19.25 -17.976562 18.859375 -18.945312 18.078125 -19.71875 C 17.304688 -20.5 16.289062 -20.890625 15.03125 -20.890625 C 13.332031 -20.890625 11.953125 -20.257812 10.890625 -19 C 9.828125 -17.738281 9.296875 -15.785156 9.296875 -13.140625 C 9.296875 -10.453125 9.875 -8.457031 11.03125 -7.15625 C 12.195312 -5.863281 13.773438 -5.21875 15.765625 -5.21875 C 16.898438 -5.21875 17.878906 -5.382812 18.703125 -5.71875 C 19.535156 -6.050781 20.234375 -6.429688 20.796875 -6.859375 C 21.421875 -7.328125 21.984375 -7.875 22.484375 -8.5 L 25.96875 -3.984375 C 25.269531 -3.085938 24.390625 -2.289062 23.328125 -1.59375 C 22.429688 -1 21.300781 -0.460938 19.9375 0.015625 C 18.582031 0.503906 16.960938 0.75 15.078125 0.75 Z M 15.078125 0.75 "/></g></g></g><g fill="#3e4ba7" fill-opacity="1"><g transform="translate(141.605353, 259.869446)"><g><path d="M 10.046875 0.75 C 8.859375 0.75 7.75 0.539062 6.71875 0.125 C 5.6875 -0.289062 4.804688 -0.851562 4.078125 -1.5625 C 3.347656 -2.28125 2.773438 -3.117188 2.359375 -4.078125 C 1.941406 -5.035156 1.734375 -6.082031 1.734375 -7.21875 C 1.734375 -8.3125 1.945312 -9.347656 2.375 -10.328125 C 2.8125 -11.304688 3.453125 -12.160156 4.296875 -12.890625 C 5.148438 -13.617188 6.179688 -14.1875 7.390625 -14.59375 C 8.597656 -15.007812 9.984375 -15.21875 11.546875 -15.21875 L 17.40625 -15.21875 L 17.40625 -16.421875 C 17.40625 -17.878906 17.03125 -18.992188 16.28125 -19.765625 C 15.539062 -20.546875 14.59375 -20.9375 13.4375 -20.9375 C 12.175781 -20.9375 11.238281 -20.65625 10.625 -20.09375 C 10.007812 -19.53125 9.703125 -18.800781 9.703125 -17.90625 C 9.703125 -17.644531 9.707031 -17.445312 9.71875 -17.3125 C 9.738281 -17.175781 9.765625 -17.046875 9.796875 -16.921875 L 3.578125 -16.921875 C 3.515625 -17.117188 3.453125 -17.332031 3.390625 -17.5625 C 3.285156 -17.957031 3.234375 -18.4375 3.234375 -19 C 3.234375 -20 3.460938 -20.96875 3.921875 -21.90625 C 4.390625 -22.851562 5.0625 -23.679688 5.9375 -24.390625 C 6.820312 -25.109375 7.894531 -25.691406 9.15625 -26.140625 C 10.414062 -26.585938 11.84375 -26.8125 13.4375 -26.8125 C 15.03125 -26.8125 16.476562 -26.550781 17.78125 -26.03125 C 19.09375 -25.519531 20.222656 -24.804688 21.171875 -23.890625 C 22.117188 -22.984375 22.847656 -21.898438 23.359375 -20.640625 C 23.867188 -19.378906 24.125 -18.003906 24.125 -16.515625 L 24.125 -7.609375 C 24.125 -6.015625 24.90625 -5.21875 26.46875 -5.21875 L 27.359375 -5.21875 L 27.359375 0 C 26.992188 0.101562 26.628906 0.203125 26.265625 0.296875 C 25.898438 0.359375 25.5 0.421875 25.0625 0.484375 C 24.632812 0.554688 24.191406 0.59375 23.734375 0.59375 C 22.472656 0.59375 21.492188 0.367188 20.796875 -0.078125 C 20.097656 -0.523438 19.566406 -1.03125 19.203125 -1.59375 C 18.804688 -2.21875 18.539062 -2.960938 18.40625 -3.828125 L 18.015625 -3.828125 C 17.546875 -2.960938 16.945312 -2.203125 16.21875 -1.546875 C 15.582031 -0.984375 14.765625 -0.460938 13.765625 0.015625 C 12.773438 0.503906 11.535156 0.75 10.046875 0.75 Z M 11.796875 -4.96875 C 13.253906 -4.96875 14.488281 -5.460938 15.5 -6.453125 C 16.507812 -7.453125 17.144531 -8.664062 17.40625 -10.09375 L 12.046875 -10.09375 C 10.816406 -10.09375 9.910156 -9.828125 9.328125 -9.296875 C 8.742188 -8.765625 8.453125 -8.171875 8.453125 -7.515625 C 8.453125 -6.816406 8.722656 -6.21875 9.265625 -5.71875 C 9.816406 -5.21875 10.660156 -4.96875 11.796875 -4.96875 Z M 11.796875 -4.96875 "/></g></g></g><g fill="#3e4ba7" fill-opacity="1"><g transform="translate(170.209321, 259.869446)"><g><path d="M 1.25 -6.21875 L 15.921875 -24.875 C 16.316406 -25.375 16.710938 -25.820312 17.109375 -26.21875 C 17.515625 -26.613281 17.898438 -26.945312 18.265625 -27.21875 C 18.628906 -27.539062 19.007812 -27.835938 19.40625 -28.109375 L 19.40625 -28.609375 L 2.234375 -28.609375 L 2.234375 -34.828125 L 27.609375 -34.828125 L 27.609375 -28.609375 L 12.9375 -9.953125 C 12.539062 -9.453125 12.132812 -8.992188 11.71875 -8.578125 C 11.300781 -8.160156 10.925781 -7.820312 10.59375 -7.5625 C 10.195312 -7.226562 9.816406 -6.945312 9.453125 -6.71875 L 9.453125 -6.21875 L 28.109375 -6.21875 L 28.109375 0 L 1.25 0 Z M 1.25 -6.21875 "/></g></g></g><g fill="#3e4ba7" fill-opacity="1"><g transform="translate(199.559478, 259.869446)"><g><path d="M 15.078125 0.75 C 13.117188 0.75 11.347656 0.441406 9.765625 -0.171875 C 8.191406 -0.785156 6.847656 -1.679688 5.734375 -2.859375 C 4.628906 -4.035156 3.769531 -5.476562 3.15625 -7.1875 C 2.539062 -8.894531 2.234375 -10.84375 2.234375 -13.03125 C 2.234375 -15.21875 2.539062 -17.164062 3.15625 -18.875 C 3.769531 -20.582031 4.640625 -22.023438 5.765625 -23.203125 C 6.898438 -24.378906 8.257812 -25.28125 9.84375 -25.90625 C 11.4375 -26.539062 13.210938 -26.859375 15.171875 -26.859375 C 16.898438 -26.859375 18.46875 -26.601562 19.875 -26.09375 C 21.28125 -25.582031 22.460938 -24.867188 23.421875 -23.953125 C 24.390625 -23.046875 25.140625 -21.96875 25.671875 -20.71875 C 26.203125 -19.476562 26.46875 -18.128906 26.46875 -16.671875 C 26.46875 -15.804688 26.390625 -15.023438 26.234375 -14.328125 C 26.085938 -13.628906 25.929688 -13 25.765625 -12.4375 C 25.566406 -11.8125 25.351562 -11.234375 25.125 -10.703125 L 9.546875 -10.703125 C 9.742188 -8.972656 10.378906 -7.59375 11.453125 -6.5625 C 12.535156 -5.539062 14.023438 -5.03125 15.921875 -5.03125 C 17.046875 -5.03125 18.039062 -5.191406 18.90625 -5.515625 C 19.769531 -5.847656 20.5 -6.210938 21.09375 -6.609375 C 21.789062 -7.078125 22.390625 -7.628906 22.890625 -8.265625 L 25.96875 -3.78125 C 25.238281 -2.914062 24.34375 -2.15625 23.28125 -1.5 C 22.382812 -0.925781 21.253906 -0.410156 19.890625 0.046875 C 18.535156 0.515625 16.929688 0.75 15.078125 0.75 Z M 18.75 -15.671875 C 19.082031 -15.671875 19.332031 -15.835938 19.5 -16.171875 C 19.664062 -16.503906 19.75 -16.914062 19.75 -17.40625 C 19.75 -18.4375 19.359375 -19.304688 18.578125 -20.015625 C 17.796875 -20.734375 16.660156 -21.09375 15.171875 -21.09375 C 13.679688 -21.09375 12.4375 -20.601562 11.4375 -19.625 C 10.445312 -18.644531 9.816406 -17.328125 9.546875 -15.671875 Z M 18.75 -15.671875 "/></g></g></g><g fill="#3e4ba7" fill-opacity="1"><g transform="translate(228.26294, 259.869446)"><g><path d="M 4.484375 -18.5 C 4.484375 -20.0625 3.703125 -20.84375 2.140625 -20.84375 L 1.25 -20.84375 L 1.25 -26.125 C 1.570312 -26.21875 1.9375 -26.316406 2.34375 -26.421875 C 2.664062 -26.484375 3.050781 -26.546875 3.5 -26.609375 C 3.945312 -26.679688 4.40625 -26.71875 4.875 -26.71875 C 6.132812 -26.71875 7.113281 -26.484375 7.8125 -26.015625 C 8.507812 -25.554688 9.039062 -25.046875 9.40625 -24.484375 C 9.800781 -23.816406 10.066406 -23.066406 10.203125 -22.234375 L 10.59375 -22.234375 C 10.988281 -23.097656 11.550781 -23.863281 12.28125 -24.53125 C 12.914062 -25.09375 13.726562 -25.617188 14.71875 -26.109375 C 15.71875 -26.609375 17 -26.859375 18.5625 -26.859375 C 19.882812 -26.859375 21.097656 -26.632812 22.203125 -26.1875 C 23.316406 -25.738281 24.269531 -25.09375 25.0625 -24.25 C 25.863281 -23.40625 26.488281 -22.367188 26.9375 -21.140625 C 27.382812 -19.910156 27.609375 -18.535156 27.609375 -17.015625 L 27.609375 0 L 20.890625 0 L 20.890625 -16.671875 C 20.890625 -17.929688 20.523438 -18.941406 19.796875 -19.703125 C 19.066406 -20.460938 18.070312 -20.84375 16.8125 -20.84375 C 15.21875 -20.84375 13.878906 -20.21875 12.796875 -18.96875 C 11.722656 -17.726562 11.1875 -15.882812 11.1875 -13.4375 L 11.1875 0 L 4.484375 0 Z M 4.484375 -18.5 "/></g></g></g><g fill="#3e4ba7" fill-opacity="1"><g transform="translate(259.602938, 259.869446)"><g/></g></g><g fill="#3e4ba7" fill-opacity="1"><g transform="translate(271.044512, 259.869446)"><g><path d="M 8.453125 -25.265625 C 8.023438 -24.671875 7.492188 -24.144531 6.859375 -23.6875 C 6.296875 -23.28125 5.578125 -22.910156 4.703125 -22.578125 C 3.828125 -22.253906 2.757812 -22.09375 1.5 -22.09375 L 1.5 -28.3125 C 2.957031 -28.3125 4.140625 -28.640625 5.046875 -29.296875 C 5.960938 -29.960938 6.6875 -30.710938 7.21875 -31.546875 C 7.8125 -32.503906 8.273438 -33.597656 8.609375 -34.828125 L 15.421875 -34.828125 L 15.421875 0 L 8.453125 0 Z M 8.453125 -25.265625 "/></g></g></g><g fill="#3e4ba7" fill-opacity="1"><g transform="translate(290.445451, 259.869446)"><g><path d="M 2.09375 -5.96875 L 13.53125 -16.609375 C 14.320312 -17.378906 15.039062 -18.085938 15.6875 -18.734375 C 16.34375 -19.378906 16.894531 -20.015625 17.34375 -20.640625 C 17.789062 -21.273438 18.132812 -21.929688 18.375 -22.609375 C 18.625 -23.285156 18.75 -24.039062 18.75 -24.875 C 18.75 -26.132812 18.316406 -27.195312 17.453125 -28.0625 C 16.597656 -28.925781 15.375 -29.359375 13.78125 -29.359375 C 12.019531 -29.359375 10.707031 -28.96875 9.84375 -28.1875 C 8.988281 -27.40625 8.5625 -26.429688 8.5625 -25.265625 C 8.5625 -24.898438 8.578125 -24.5625 8.609375 -24.25 C 8.640625 -23.9375 8.6875 -23.664062 8.75 -23.4375 C 8.820312 -23.164062 8.890625 -22.929688 8.953125 -22.734375 L 2.234375 -22.734375 C 2.140625 -23.035156 2.054688 -23.367188 1.984375 -23.734375 C 1.816406 -24.390625 1.734375 -25.21875 1.734375 -26.21875 C 1.734375 -27.445312 2 -28.628906 2.53125 -29.765625 C 3.0625 -30.910156 3.84375 -31.90625 4.875 -32.75 C 5.90625 -33.601562 7.179688 -34.285156 8.703125 -34.796875 C 10.234375 -35.316406 11.976562 -35.578125 13.9375 -35.578125 C 15.820312 -35.578125 17.519531 -35.300781 19.03125 -34.75 C 20.539062 -34.195312 21.816406 -33.457031 22.859375 -32.53125 C 23.898438 -31.601562 24.703125 -30.507812 25.265625 -29.25 C 25.835938 -27.988281 26.125 -26.644531 26.125 -25.21875 C 26.125 -23.832031 25.941406 -22.585938 25.578125 -21.484375 C 25.210938 -20.390625 24.722656 -19.378906 24.109375 -18.453125 C 23.492188 -17.523438 22.757812 -16.640625 21.90625 -15.796875 C 21.0625 -14.953125 20.175781 -14.082031 19.25 -13.1875 L 14.28125 -8.453125 C 13.8125 -7.992188 13.394531 -7.628906 13.03125 -7.359375 C 12.664062 -7.097656 12.351562 -6.882812 12.09375 -6.71875 C 11.789062 -6.519531 11.523438 -6.367188 11.296875 -6.265625 L 11.296875 -5.765625 C 11.554688 -5.835938 11.882812 -5.90625 12.28125 -5.96875 C 12.644531 -6.03125 13.109375 -6.085938 13.671875 -6.140625 C 14.242188 -6.191406 14.941406 -6.21875 15.765625 -6.21875 L 26.125 -6.21875 L 26.125 0 L 2.09375 0 Z M 2.09375 -5.96875 "/></g></g></g><g fill="#fc6494" fill-opacity="1"><g transform="translate(77.090552, 284.698282)"><g><path d="M 5.109375 0.203125 C 4.472656 0.203125 3.894531 0.09375 3.375 -0.125 C 2.851562 -0.34375 2.40625 -0.664062 2.03125 -1.09375 C 1.65625 -1.519531 1.363281 -2.050781 1.15625 -2.6875 C 0.945312 -3.332031 0.84375 -4.078125 0.84375 -4.921875 C 0.84375 -5.765625 0.945312 -6.503906 1.15625 -7.140625 C 1.363281 -7.785156 1.65625 -8.320312 2.03125 -8.75 C 2.40625 -9.175781 2.847656 -9.5 3.359375 -9.71875 C 3.878906 -9.9375 4.445312 -10.046875 5.0625 -10.046875 C 5.582031 -10.046875 6.050781 -9.972656 6.46875 -9.828125 C 6.882812 -9.679688 7.238281 -9.476562 7.53125 -9.21875 C 7.832031 -8.957031 8.0625 -8.65625 8.21875 -8.3125 C 8.375 -7.96875 8.453125 -7.601562 8.453125 -7.21875 C 8.453125 -7.070312 8.441406 -6.9375 8.421875 -6.8125 C 8.410156 -6.695312 8.394531 -6.597656 8.375 -6.515625 C 8.351562 -6.410156 8.332031 -6.316406 8.3125 -6.234375 L 7.328125 -6.234375 C 7.347656 -6.304688 7.367188 -6.394531 7.390625 -6.5 C 7.410156 -6.582031 7.425781 -6.675781 7.4375 -6.78125 C 7.457031 -6.894531 7.46875 -7.019531 7.46875 -7.15625 C 7.46875 -7.4375 7.410156 -7.695312 7.296875 -7.9375 C 7.191406 -8.175781 7.035156 -8.382812 6.828125 -8.5625 C 6.628906 -8.738281 6.378906 -8.878906 6.078125 -8.984375 C 5.785156 -9.085938 5.445312 -9.140625 5.0625 -9.140625 C 4.601562 -9.140625 4.175781 -9.050781 3.78125 -8.875 C 3.382812 -8.707031 3.039062 -8.445312 2.75 -8.09375 C 2.46875 -7.75 2.25 -7.3125 2.09375 -6.78125 C 1.9375 -6.25 1.859375 -5.628906 1.859375 -4.921875 C 1.859375 -4.210938 1.9375 -3.59375 2.09375 -3.0625 C 2.257812 -2.53125 2.488281 -2.085938 2.78125 -1.734375 C 3.070312 -1.390625 3.414062 -1.128906 3.8125 -0.953125 C 4.21875 -0.785156 4.664062 -0.703125 5.15625 -0.703125 C 5.644531 -0.703125 6.066406 -0.78125 6.421875 -0.9375 C 6.773438 -1.101562 7.070312 -1.285156 7.3125 -1.484375 C 7.582031 -1.722656 7.8125 -1.988281 8 -2.28125 L 8.5625 -1.59375 C 8.34375 -1.25 8.078125 -0.945312 7.765625 -0.6875 C 7.484375 -0.457031 7.125 -0.25 6.6875 -0.0625 C 6.25 0.113281 5.722656 0.203125 5.109375 0.203125 Z M 5.109375 0.203125 "/></g></g></g><g fill="#fc6494" fill-opacity="1"><g transform="translate(97.53932, 284.698282)"><g><path d="M 5.0625 0.203125 C 4.4375 0.203125 3.863281 0.0976562 3.34375 -0.109375 C 2.832031 -0.328125 2.390625 -0.648438 2.015625 -1.078125 C 1.648438 -1.503906 1.363281 -2.035156 1.15625 -2.671875 C 0.945312 -3.316406 0.84375 -4.066406 0.84375 -4.921875 C 0.84375 -5.773438 0.945312 -6.519531 1.15625 -7.15625 C 1.363281 -7.800781 1.648438 -8.335938 2.015625 -8.765625 C 2.390625 -9.191406 2.832031 -9.507812 3.34375 -9.71875 C 3.863281 -9.9375 4.4375 -10.046875 5.0625 -10.046875 C 5.6875 -10.046875 6.253906 -9.9375 6.765625 -9.71875 C 7.285156 -9.507812 7.726562 -9.191406 8.09375 -8.765625 C 8.46875 -8.335938 8.757812 -7.800781 8.96875 -7.15625 C 9.175781 -6.519531 9.28125 -5.773438 9.28125 -4.921875 C 9.28125 -4.066406 9.175781 -3.316406 8.96875 -2.671875 C 8.757812 -2.035156 8.46875 -1.503906 8.09375 -1.078125 C 7.726562 -0.648438 7.285156 -0.328125 6.765625 -0.109375 C 6.253906 0.0976562 5.6875 0.203125 5.0625 0.203125 Z M 5.0625 -0.703125 C 5.53125 -0.703125 5.960938 -0.785156 6.359375 -0.953125 C 6.753906 -1.117188 7.09375 -1.375 7.375 -1.71875 C 7.65625 -2.070312 7.875 -2.515625 8.03125 -3.046875 C 8.1875 -3.578125 8.265625 -4.203125 8.265625 -4.921875 C 8.265625 -5.640625 8.1875 -6.265625 8.03125 -6.796875 C 7.875 -7.328125 7.65625 -7.765625 7.375 -8.109375 C 7.09375 -8.460938 6.753906 -8.722656 6.359375 -8.890625 C 5.960938 -9.054688 5.53125 -9.140625 5.0625 -9.140625 C 4.59375 -9.140625 4.160156 -9.054688 3.765625 -8.890625 C 3.367188 -8.722656 3.03125 -8.460938 2.75 -8.109375 C 2.46875 -7.765625 2.25 -7.328125 2.09375 -6.796875 C 1.9375 -6.265625 1.859375 -5.640625 1.859375 -4.921875 C 1.859375 -4.203125 1.9375 -3.578125 2.09375 -3.046875 C 2.25 -2.515625 2.46875 -2.070312 2.75 -1.71875 C 3.03125 -1.375 3.367188 -1.117188 3.765625 -0.953125 C 4.160156 -0.785156 4.59375 -0.703125 5.0625 -0.703125 Z M 5.0625 -0.703125 "/></g></g></g><g fill="#fc6494" fill-opacity="1"><g transform="translate(118.916215, 284.698282)"><g><path d="M 1.328125 -9.84375 L 2.453125 -9.84375 L 7.921875 -1.640625 L 7.984375 -1.640625 L 7.984375 -9.84375 L 8.96875 -9.84375 L 8.96875 0 L 7.84375 0 L 2.390625 -8.203125 L 2.3125 -8.203125 L 2.3125 0 L 1.328125 0 Z M 1.328125 -9.84375 "/></g></g></g><g fill="#fc6494" fill-opacity="1"><g transform="translate(140.475915, 284.698282)"><g><path d="M 5.109375 0.203125 C 4.472656 0.203125 3.894531 0.09375 3.375 -0.125 C 2.851562 -0.34375 2.40625 -0.664062 2.03125 -1.09375 C 1.65625 -1.519531 1.363281 -2.050781 1.15625 -2.6875 C 0.945312 -3.332031 0.84375 -4.078125 0.84375 -4.921875 C 0.84375 -5.765625 0.945312 -6.503906 1.15625 -7.140625 C 1.363281 -7.785156 1.65625 -8.320312 2.03125 -8.75 C 2.40625 -9.175781 2.847656 -9.5 3.359375 -9.71875 C 3.878906 -9.9375 4.445312 -10.046875 5.0625 -10.046875 C 5.582031 -10.046875 6.050781 -9.972656 6.46875 -9.828125 C 6.882812 -9.679688 7.238281 -9.476562 7.53125 -9.21875 C 7.832031 -8.957031 8.0625 -8.65625 8.21875 -8.3125 C 8.375 -7.96875 8.453125 -7.601562 8.453125 -7.21875 C 8.453125 -7.070312 8.441406 -6.9375 8.421875 -6.8125 C 8.410156 -6.695312 8.394531 -6.597656 8.375 -6.515625 C 8.351562 -6.410156 8.332031 -6.316406 8.3125 -6.234375 L 7.328125 -6.234375 C 7.347656 -6.304688 7.367188 -6.394531 7.390625 -6.5 C 7.410156 -6.582031 7.425781 -6.675781 7.4375 -6.78125 C 7.457031 -6.894531 7.46875 -7.019531 7.46875 -7.15625 C 7.46875 -7.4375 7.410156 -7.695312 7.296875 -7.9375 C 7.191406 -8.175781 7.035156 -8.382812 6.828125 -8.5625 C 6.628906 -8.738281 6.378906 -8.878906 6.078125 -8.984375 C 5.785156 -9.085938 5.445312 -9.140625 5.0625 -9.140625 C 4.601562 -9.140625 4.175781 -9.050781 3.78125 -8.875 C 3.382812 -8.707031 3.039062 -8.445312 2.75 -8.09375 C 2.46875 -7.75 2.25 -7.3125 2.09375 -6.78125 C 1.9375 -6.25 1.859375 -5.628906 1.859375 -4.921875 C 1.859375 -4.210938 1.9375 -3.59375 2.09375 -3.0625 C 2.257812 -2.53125 2.488281 -2.085938 2.78125 -1.734375 C 3.070312 -1.390625 3.414062 -1.128906 3.8125 -0.953125 C 4.21875 -0.785156 4.664062 -0.703125 5.15625 -0.703125 C 5.644531 -0.703125 6.066406 -0.78125 6.421875 -0.9375 C 6.773438 -1.101562 7.070312 -1.285156 7.3125 -1.484375 C 7.582031 -1.722656 7.8125 -1.988281 8 -2.28125 L 8.5625 -1.59375 C 8.34375 -1.25 8.078125 -0.945312 7.765625 -0.6875 C 7.484375 -0.457031 7.125 -0.25 6.6875 -0.0625 C 6.25 0.113281 5.722656 0.203125 5.109375 0.203125 Z M 5.109375 0.203125 "/></g></g></g><g fill="#fc6494" fill-opacity="1"><g transform="translate(160.924687, 284.698282)"><g><path d="M 1.328125 -9.84375 L 2.3125 -9.84375 L 2.3125 0 L 1.328125 0 Z M 1.328125 -9.84375 "/></g></g></g><g fill="#fc6494" fill-opacity="1"><g transform="translate(175.832847, 284.698282)"><g><path d="M 1.328125 -9.84375 L 7.265625 -9.84375 L 7.265625 -8.921875 L 2.3125 -8.921875 L 2.3125 -5.375 L 6.390625 -5.375 L 6.390625 -4.453125 L 2.3125 -4.453125 L 2.3125 -0.90625 L 7.265625 -0.90625 L 7.265625 0 L 1.328125 0 Z M 1.328125 -9.84375 "/></g></g></g><g fill="#fc6494" fill-opacity="1"><g transform="translate(194.84725, 284.698282)"><g><path d="M 8.09375 0.140625 C 7.625 0.140625 7.257812 0.0351562 7 -0.171875 C 6.75 -0.390625 6.53125 -0.710938 6.34375 -1.140625 L 5.546875 -2.9375 C 5.441406 -3.1875 5.296875 -3.382812 5.109375 -3.53125 C 4.929688 -3.6875 4.664062 -3.765625 4.3125 -3.765625 L 2.3125 -3.765625 L 2.3125 0 L 1.328125 0 L 1.328125 -9.84375 L 4.3125 -9.84375 C 4.9375 -9.84375 5.476562 -9.769531 5.9375 -9.625 C 6.40625 -9.476562 6.789062 -9.269531 7.09375 -9 C 7.40625 -8.738281 7.640625 -8.421875 7.796875 -8.046875 C 7.953125 -7.671875 8.03125 -7.257812 8.03125 -6.8125 C 8.03125 -6.5 7.992188 -6.21875 7.921875 -5.96875 C 7.859375 -5.726562 7.773438 -5.515625 7.671875 -5.328125 C 7.566406 -5.140625 7.441406 -4.976562 7.296875 -4.84375 C 7.160156 -4.71875 7.023438 -4.609375 6.890625 -4.515625 C 6.554688 -4.296875 6.179688 -4.15625 5.765625 -4.09375 L 5.765625 -4.015625 C 5.847656 -3.984375 5.9375 -3.929688 6.03125 -3.859375 C 6.101562 -3.785156 6.1875 -3.691406 6.28125 -3.578125 C 6.375 -3.460938 6.460938 -3.3125 6.546875 -3.125 L 7.25 -1.484375 C 7.351562 -1.253906 7.476562 -1.078125 7.625 -0.953125 C 7.769531 -0.828125 7.976562 -0.765625 8.25 -0.765625 C 8.320312 -0.765625 8.398438 -0.769531 8.484375 -0.78125 C 8.566406 -0.789062 8.640625 -0.804688 8.703125 -0.828125 C 8.773438 -0.847656 8.84375 -0.867188 8.90625 -0.890625 L 8.90625 0 C 8.820312 0.03125 8.734375 0.0507812 8.640625 0.0625 C 8.472656 0.113281 8.289062 0.140625 8.09375 0.140625 Z M 4.3125 -4.6875 C 5.25 -4.6875 5.929688 -4.875 6.359375 -5.25 C 6.796875 -5.632812 7.015625 -6.15625 7.015625 -6.8125 C 7.015625 -7.457031 6.796875 -7.96875 6.359375 -8.34375 C 5.929688 -8.726562 5.25 -8.921875 4.3125 -8.921875 L 2.3125 -8.921875 L 2.3125 -4.6875 Z M 4.3125 -4.6875 "/></g></g></g><g fill="#fc6494" fill-opacity="1"><g transform="translate(215.071018, 284.698282)"><g><path d="M 5.109375 0.203125 C 4.472656 0.203125 3.894531 0.09375 3.375 -0.125 C 2.851562 -0.34375 2.40625 -0.664062 2.03125 -1.09375 C 1.65625 -1.519531 1.363281 -2.050781 1.15625 -2.6875 C 0.945312 -3.332031 0.84375 -4.078125 0.84375 -4.921875 C 0.84375 -5.765625 0.945312 -6.503906 1.15625 -7.140625 C 1.363281 -7.785156 1.65625 -8.320312 2.03125 -8.75 C 2.40625 -9.175781 2.847656 -9.5 3.359375 -9.71875 C 3.878906 -9.9375 4.445312 -10.046875 5.0625 -10.046875 C 5.582031 -10.046875 6.050781 -9.972656 6.46875 -9.828125 C 6.882812 -9.679688 7.238281 -9.476562 7.53125 -9.21875 C 7.832031 -8.957031 8.0625 -8.65625 8.21875 -8.3125 C 8.375 -7.96875 8.453125 -7.601562 8.453125 -7.21875 C 8.453125 -7.070312 8.441406 -6.9375 8.421875 -6.8125 C 8.410156 -6.695312 8.394531 -6.597656 8.375 -6.515625 C 8.351562 -6.410156 8.332031 -6.316406 8.3125 -6.234375 L 7.328125 -6.234375 C 7.347656 -6.304688 7.367188 -6.394531 7.390625 -6.5 C 7.410156 -6.582031 7.425781 -6.675781 7.4375 -6.78125 C 7.457031 -6.894531 7.46875 -7.019531 7.46875 -7.15625 C 7.46875 -7.4375 7.410156 -7.695312 7.296875 -7.9375 C 7.191406 -8.175781 7.035156 -8.382812 6.828125 -8.5625 C 6.628906 -8.738281 6.378906 -8.878906 6.078125 -8.984375 C 5.785156 -9.085938 5.445312 -9.140625 5.0625 -9.140625 C 4.601562 -9.140625 4.175781 -9.050781 3.78125 -8.875 C 3.382812 -8.707031 3.039062 -8.445312 2.75 -8.09375 C 2.46875 -7.75 2.25 -7.3125 2.09375 -6.78125 C 1.9375 -6.25 1.859375 -5.628906 1.859375 -4.921875 C 1.859375 -4.210938 1.9375 -3.59375 2.09375 -3.0625 C 2.257812 -2.53125 2.488281 -2.085938 2.78125 -1.734375 C 3.070312 -1.390625 3.414062 -1.128906 3.8125 -0.953125 C 4.21875 -0.785156 4.664062 -0.703125 5.15625 -0.703125 C 5.613281 -0.703125 6.003906 -0.757812 6.328125 -0.875 C 6.648438 -1 6.910156 -1.144531 7.109375 -1.3125 C 7.359375 -1.488281 7.554688 -1.691406 7.703125 -1.921875 L 7.703125 -4.234375 L 5.5625 -4.234375 L 5.5625 -5.140625 L 8.6875 -5.140625 L 8.6875 -1.59375 C 8.457031 -1.25 8.164062 -0.945312 7.8125 -0.6875 C 7.519531 -0.457031 7.148438 -0.25 6.703125 -0.0625 C 6.253906 0.113281 5.722656 0.203125 5.109375 0.203125 Z M 5.109375 0.203125 "/></g></g></g><g fill="#fc6494" fill-opacity="1"><g transform="translate(235.997912, 284.698282)"><g><path d="M 1.328125 -9.84375 L 7.265625 -9.84375 L 7.265625 -8.921875 L 2.3125 -8.921875 L 2.3125 -5.375 L 6.390625 -5.375 L 6.390625 -4.453125 L 2.3125 -4.453125 L 2.3125 -0.90625 L 7.265625 -0.90625 L 7.265625 0 L 1.328125 0 Z M 1.328125 -9.84375 "/></g></g></g><g fill="#fc6494" fill-opacity="1"><g transform="translate(255.012315, 284.698282)"><g><path d="M 8.09375 0.140625 C 7.625 0.140625 7.257812 0.0351562 7 -0.171875 C 6.75 -0.390625 6.53125 -0.710938 6.34375 -1.140625 L 5.546875 -2.9375 C 5.441406 -3.1875 5.296875 -3.382812 5.109375 -3.53125 C 4.929688 -3.6875 4.664062 -3.765625 4.3125 -3.765625 L 2.3125 -3.765625 L 2.3125 0 L 1.328125 0 L 1.328125 -9.84375 L 4.3125 -9.84375 C 4.9375 -9.84375 5.476562 -9.769531 5.9375 -9.625 C 6.40625 -9.476562 6.789062 -9.269531 7.09375 -9 C 7.40625 -8.738281 7.640625 -8.421875 7.796875 -8.046875 C 7.953125 -7.671875 8.03125 -7.257812 8.03125 -6.8125 C 8.03125 -6.5 7.992188 -6.21875 7.921875 -5.96875 C 7.859375 -5.726562 7.773438 -5.515625 7.671875 -5.328125 C 7.566406 -5.140625 7.441406 -4.976562 7.296875 -4.84375 C 7.160156 -4.71875 7.023438 -4.609375 6.890625 -4.515625 C 6.554688 -4.296875 6.179688 -4.15625 5.765625 -4.09375 L 5.765625 -4.015625 C 5.847656 -3.984375 5.9375 -3.929688 6.03125 -3.859375 C 6.101562 -3.785156 6.1875 -3.691406 6.28125 -3.578125 C 6.375 -3.460938 6.460938 -3.3125 6.546875 -3.125 L 7.25 -1.484375 C 7.351562 -1.253906 7.476562 -1.078125 7.625 -0.953125 C 7.769531 -0.828125 7.976562 -0.765625 8.25 -0.765625 C 8.320312 -0.765625 8.398438 -0.769531 8.484375 -0.78125 C 8.566406 -0.789062 8.640625 -0.804688 8.703125 -0.828125 C 8.773438 -0.847656 8.84375 -0.867188 8.90625 -0.890625 L 8.90625 0 C 8.820312 0.03125 8.734375 0.0507812 8.640625 0.0625 C 8.472656 0.113281 8.289062 0.140625 8.09375 0.140625 Z M 4.3125 -4.6875 C 5.25 -4.6875 5.929688 -4.875 6.359375 -5.25 C 6.796875 -5.632812 7.015625 -6.15625 7.015625 -6.8125 C 7.015625 -7.457031 6.796875 -7.96875 6.359375 -8.34375 C 5.929688 -8.726562 5.25 -8.921875 4.3125 -8.921875 L 2.3125 -8.921875 L 2.3125 -4.6875 Z M 4.3125 -4.6875 "/></g></g></g><g fill="#fc6494" fill-opacity="1"><g transform="translate(275.236084, 284.698282)"><g><path d="M 1.328125 -9.84375 L 2.3125 -9.84375 L 2.3125 0 L 1.328125 0 Z M 1.328125 -9.84375 "/></g></g></g><g fill="#fc6494" fill-opacity="1"><g transform="translate(290.144233, 284.698282)"><g><path d="M 1.328125 -9.84375 L 7.265625 -9.84375 L 7.265625 -8.921875 L 2.3125 -8.921875 L 2.3125 -5.375 L 6.390625 -5.375 L 6.390625 -4.453125 L 2.3125 -4.453125 L 2.3125 -0.90625 L 7.265625 -0.90625 L 7.265625 0 L 1.328125 0 Z M 1.328125 -9.84375 "/></g></g></g><g clip-path="url(#d5fb87beb0)"><path fill="#fc6494" d="M 204.71875 134.347656 C 196.421875 144.992188 189.375 159.15625 187.328125 177.542969 C 185.363281 159.914062 178.808594 146.171875 170.960938 135.6875 C 174.554688 108.042969 187.929688 87.589844 187.929688 87.589844 C 187.929688 87.589844 200.878906 107.390625 204.71875 134.347656 " fill-opacity="1" fill-rule="nonzero"/></g><path fill="#3e4ba7" d="M 235.765625 114.335938 C 235.660156 121.699219 234.867188 134.066406 231.351562 147.089844 C 228.148438 158.949219 223.335938 169.050781 217.046875 177.121094 C 210.542969 185.46875 202.386719 191.695312 192.742188 195.695312 C 192.21875 195.914062 191.6875 196.125 191.15625 196.328125 C 190.171875 183.09375 191.6875 170.777344 195.683594 159.628906 C 198.066406 152.980469 201.332031 146.714844 205.445312 140.898438 C 207.660156 137.765625 210.117188 134.769531 212.804688 131.90625 C 221.261719 122.921875 230.261719 117.28125 235.765625 114.335938 " fill-opacity="1" fill-rule="nonzero"/><path fill="#3e4ba7" d="M 183.496094 196.316406 L 183.496094 196.328125 C 173.160156 192.367188 164.464844 185.921875 157.609375 177.121094 C 151.320312 169.050781 146.507812 158.949219 143.304688 147.089844 C 139.785156 134.058594 138.992188 121.691406 138.886719 114.328125 C 144.332031 117.234375 153.214844 122.800781 161.648438 131.691406 C 164.875 135.09375 167.761719 138.695312 170.296875 142.480469 C 173.867188 147.796875 176.75 153.476562 178.910156 159.457031 C 182.949219 170.644531 184.488281 183.019531 183.496094 196.316406 " fill-opacity="1" fill-rule="nonzero"/><g clip-path="url(#e971f696bc)"><path fill="#fc6494" d="M 270.953125 145.101562 C 268.210938 143.609375 264.855469 145.269531 262.230469 146.410156 C 254.171875 149.925781 249.863281 158.410156 246.226562 167.429688 C 243.132812 175.105469 238.945312 181.496094 233.242188 186.492188 C 221.277344 196.988281 205.4375 201.539062 190.867188 200.097656 C 190.875 200.097656 190.882812 200.097656 190.890625 200.089844 C 190.921875 200.089844 190.949219 200.085938 190.980469 200.078125 C 201.933594 198.257812 212.371094 192.878906 220.464844 183.519531 C 227.734375 175.117188 231.234375 163.699219 236.332031 153.441406 C 238.175781 149.738281 240.515625 145.949219 243.324219 143.03125 C 244.8125 141.480469 246.429688 140.179688 248.175781 139.257812 C 261.660156 131.140625 270.953125 145.101562 270.953125 145.101562 " fill-opacity="1" fill-rule="nonzero"/></g><g clip-path="url(#dfe4e6e474)"><path fill="#fc6494" d="M 103.703125 145.101562 C 106.445312 143.609375 109.800781 145.269531 112.421875 146.410156 C 120.484375 149.925781 124.792969 158.410156 128.425781 167.429688 C 131.519531 175.105469 135.710938 181.496094 141.410156 186.492188 C 153.378906 196.988281 169.21875 201.539062 183.789062 200.097656 C 183.777344 200.097656 183.769531 200.097656 183.761719 200.089844 C 183.730469 200.089844 183.703125 200.085938 183.671875 200.078125 C 172.71875 198.257812 162.285156 192.878906 154.1875 183.519531 C 146.917969 175.117188 143.421875 163.699219 138.320312 153.441406 C 136.476562 149.738281 134.140625 145.949219 131.328125 143.03125 C 129.84375 141.480469 128.222656 140.179688 126.476562 139.257812 C 112.992188 131.140625 103.703125 145.101562 103.703125 145.101562 " fill-opacity="1" fill-rule="nonzero"/></g></svg>